<?xml version="1.0" standalone="no"?>
<!DOCTYPE svg PUBLIC "-//W3C//DTD SVG 20010904//EN"
 "http://www.w3.org/TR/2001/REC-SVG-20010904/DTD/svg10.dtd">
<svg version="1.0" xmlns="http://www.w3.org/2000/svg"
 width="611.000000pt" height="611.000000pt" viewBox="0 0 611.000000 611.000000"
 preserveAspectRatio="xMidYMid meet">
<metadata>
Created by potrace 1.11, written by Peter Selinger 2001-2013
</metadata>
<g transform="translate(0.000000,611.000000) scale(0.100000,-0.100000)"
fill="#000000" stroke="none">
<path d="M2859 6095 c-2 -2 -44 -6 -94 -10 -49 -3 -97 -8 -105 -10 -8 -2 -33
-6 -55 -10 -22 -3 -85 -14 -140 -25 -55 -11 -109 -22 -120 -24 -11 -2 -60 -16
-110 -31 -49 -14 -97 -28 -105 -30 -23 -5 -131 -45 -175 -65 -22 -9 -51 -21
-65 -25 -43 -13 -275 -126 -278 -136 -2 -5 -9 -9 -16 -9 -7 0 -30 -11 -50 -25
-20 -13 -36 -22 -36 -20 0 2 -17 -7 -37 -20 -21 -14 -46 -31 -57 -38 -10 -6
-29 -20 -41 -29 -13 -10 -26 -18 -29 -18 -3 0 -36 -23 -73 -51 -103 -76 -123
-92 -148 -114 -12 -11 -49 -42 -81 -70 -71 -61 -201 -192 -257 -258 -23 -27
-53 -61 -66 -75 -13 -15 -49 -60 -79 -102 -31 -41 -58 -77 -62 -80 -3 -3 -21
-30 -40 -60 -19 -30 -37 -57 -40 -60 -6 -5 -51 -79 -87 -145 -53 -95 -160
-316 -169 -350 -1 -5 -16 -44 -32 -85 -46 -116 -106 -323 -127 -438 -2 -13 -6
-31 -9 -40 -3 -9 -7 -34 -10 -54 -14 -89 -18 -114 -22 -138 -12 -70 -19 -215
-19 -395 0 -223 8 -327 36 -490 17 -98 26 -144 45 -220 8 -33 17 -70 19 -83 9
-39 96 -295 115 -337 10 -22 31 -71 48 -110 33 -74 141 -287 151 -295 3 -3 17
-25 30 -50 14 -25 27 -47 30 -50 3 -3 24 -32 46 -65 51 -77 127 -179 137 -183
4 -2 8 -8 8 -13 0 -5 8 -17 17 -27 10 -10 45 -49 78 -86 99 -113 223 -234 335
-325 36 -30 67 -58 68 -62 2 -5 9 -9 15 -9 6 0 20 -8 31 -19 98 -89 420 -276
628 -365 185 -78 476 -168 618 -190 19 -3 46 -8 60 -11 13 -2 42 -7 65 -10 22
-3 51 -8 65 -10 157 -27 696 -27 790 0 8 3 33 7 55 9 161 20 480 105 634 168
14 6 31 12 38 14 7 1 37 14 67 28 63 30 97 43 110 44 5 0 12 4 15 9 11 15 68
43 75 36 3 -3 6 -1 6 5 0 7 4 12 10 12 22 0 330 190 398 245 10 8 55 44 102
82 47 37 100 81 119 98 66 58 211 208 211 217 0 5 5 6 10 3 6 -3 10 -2 10 4 0
6 12 24 28 40 15 16 41 46 57 66 17 20 36 43 43 50 6 8 12 16 12 19 0 5 19 31
45 60 23 25 85 117 85 124 0 5 9 17 20 27 11 10 22 26 26 37 3 11 19 39 35 63
16 24 29 47 29 53 0 6 4 12 8 14 11 4 170 330 177 362 1 6 7 22 12 36 6 14 20
54 33 90 12 36 25 72 28 80 3 8 6 20 7 25 2 6 10 36 20 67 9 32 16 59 15 60 0
2 6 26 14 53 8 28 17 64 20 80 3 17 12 68 20 115 33 181 41 283 41 515 0 183
-8 331 -20 395 -3 14 -7 45 -10 69 -3 25 -8 54 -10 65 -3 12 -7 32 -9 46 -3
14 -10 48 -16 75 -5 28 -13 61 -16 75 -2 14 -9 40 -15 58 -6 18 -12 39 -13 45
-2 7 -9 32 -16 57 -7 25 -14 50 -16 55 -2 11 -41 115 -57 155 -6 14 -11 27
-12 30 -35 102 -169 369 -241 481 -16 24 -31 49 -34 54 -20 39 -53 85 -61 85
-5 0 -9 6 -9 13 0 7 -8 22 -17 33 -10 10 -31 37 -48 59 -16 22 -34 45 -40 51
-5 6 -21 26 -35 44 -48 63 -193 215 -296 310 -59 54 -85 76 -194 162 -74 59
-221 158 -295 199 -33 18 -62 36 -65 40 -3 3 -70 38 -150 77 -133 64 -350 150
-460 181 -25 8 -56 17 -70 21 -23 8 -53 15 -162 40 -57 13 -146 29 -183 34
-16 3 -52 8 -80 11 -27 4 -66 9 -85 12 -46 5 -496 13 -501 8z"/>
</g>
</svg>
